<?xml version="1.0" encoding="UTF-8"?>
<svg id="Capa_1" data-name="Capa 1" xmlns="http://www.w3.org/2000/svg" viewBox="0 0 883.7 813.6">
  <defs>
    <style>
      .cls-1 {
        fill: #fff;
      }

      .cls-2 {
        fill: #29abe2;
      }
    </style>
  </defs>
  <path class="cls-2" d="m440.6,0h0C685.2,0,883.7,198.6,883.7,443.1v370.5H0v-373C0,197.4,197.4,0,440.6,0Z"/>
  <g>
    <path class="cls-1" d="m386.1,460.6h-16.1v-192.1h-68.9v-14.6h154.5v14.6h-69.4v192.1Z"/>
    <path class="cls-1" d="m556.9,297.7c19.4,0,34.9,5.9,46.6,17.8,11.7,11.9,17.5,27.5,17.5,46.8v98.3h-15.5v-97c0-15.6-4.6-28.1-13.9-37.4-9.3-9.3-21.6-14-37-14s-29.1,4.9-39.1,14.8c-10,9.8-15,22.5-15,38v95.7h-15.5v-214l14.3-3,1.2.9v80.9c5.8-8.7,13.6-15.5,23.4-20.4,9.8-4.9,20.8-7.4,33-7.4Z"/>
    <path class="cls-1" d="m816.5,386.2h-142.4c1.2,19.5,8.2,35,21,46.5,12.7,11.5,28.2,17.3,46.4,17.3s23.1-2.5,34-7.5,19.5-11.8,25.8-20.5h1.2l10.1,8.5v1.4c-7.5,10.1-17.6,18.1-30.5,23.8-12.9,5.7-26.3,8.6-40.3,8.6s-29.1-3.3-41.8-9.9c-12.6-6.6-22.8-16.3-30.6-29-7.8-12.8-11.6-27.5-11.6-44.2,0-24.1,7.5-44.1,22.4-59.9,15-15.8,34.3-23.8,58-23.8s22.7,2.1,32.6,6.4c9.9,4.2,18.2,10,24.8,17.4,6.6,7.4,11.8,16,15.5,25.9,3.7,9.9,5.6,20.5,5.6,31.8s-.1,5.7-.3,7Zm-77.6-74.1c-18,0-32.9,5.6-44.8,16.7-11.9,11.1-18.4,25.7-19.6,43.7h126.2c-1.5-18.5-7.7-33.2-18.7-44.1s-25.4-16.3-43.1-16.3Z"/>
  </g>
  <g>
    <path class="cls-1" d="m109.7,606c8,14.1,18.9,25.1,32.8,33.1,13.9,8,29.3,12,46.2,12s28.7-3.1,41.3-9.2c12.6-6.1,23-14.6,31.2-25.5h1.2l11,8.5v1.4c-9.8,12.5-22.1,22.3-36.9,29.4s-30.7,10.6-47.9,10.6-29.2-2.8-42.5-8.3c-13.3-5.5-24.7-13-34.2-22.5-9.5-9.5-17.1-20.9-22.6-34.2-5.5-13.3-8.3-27.4-8.3-42.3s2.8-29,8.3-42.2c5.5-13.2,13.1-24.6,22.6-34.2s20.9-17,34.2-22.5c13.3-5.5,27.5-8.2,42.5-8.2s33.2,3.5,47.9,10.6c14.8,7.1,27,16.9,36.9,29.4v1.2l-11,8.7h-1.2c-8.2-10.9-18.6-19.4-31.2-25.5-12.6-6.1-26.4-9.2-41.3-9.2s-32.2,3.9-46.1,11.8c-13.9,7.9-24.8,18.8-32.8,32.9-8,14.1-12,29.8-12,47s4,32.8,12,46.9Z"/>
    <path class="cls-1" d="m450.1,650.1l3.4,10.6-.6,1.6c-3.7,2.8-8.2,4.2-13.4,4.2s-12.1-2.3-15.9-6.8c-3.8-4.6-5.7-10.6-5.7-18v-2.3c-6.3,8.7-14.8,15.4-25.5,20.1-10.7,4.7-22,7.1-34,7.1-17.3,0-31.8-4.6-43.5-13.9-11.7-9.3-17.5-21.9-17.5-38s3.2-20.9,9.6-28.8c6.4-7.9,14.6-13.6,24.7-17.2,10-3.5,21.4-5.3,34-5.3s34.8,3.6,51.6,10.9v-16.6c0-9.5-2.6-17.7-7.9-24.5-5.3-6.8-11.8-11.6-19.5-14.6-7.7-3-16.1-4.4-25.1-4.4-19,0-36.1,7.7-51.2,23.1h-1.2l-9.8-8.5v-1.2c17.5-18.5,38.6-27.8,63.2-27.8s13.1.6,19.3,1.9c6.3,1.3,12.3,3.4,18.2,6.4,5.8,3,10.9,6.7,15.3,11.2,4.3,4.5,7.8,10.1,10.4,16.8,2.6,6.8,3.9,14.4,3.9,22.7v78.9c0,9.7,3,14.6,9,14.6s5-.8,7-2.5l1.2.3Zm-89.8,1.9c7.1,0,14.1-1.1,20.8-3.2,6.7-2.1,12.8-5.1,18.2-9s9.8-8.9,13-15.1c3.3-6.2,4.9-13,4.9-20.4v-16.5c-16.3-7.2-33.1-10.9-50.6-10.9s-28.4,3.3-38.3,9.9c-9.9,6.6-14.8,15.9-14.8,28s4.5,20.5,13.5,27.2c9,6.6,20.1,9.9,33.2,9.9Z"/>
    <path class="cls-1" d="m499.3,445.6l1.2.9v191.1c0,9.7,3,14.6,9,14.6s5-.8,7-2.5l1.2.3,3.4,10.6-.6,1.6c-3.7,2.8-8.3,4.2-13.7,4.2s-12.3-2.3-16.1-6.8c-3.8-4.6-5.7-10.6-5.7-18v-193l14.3-3Z"/>
    <path class="cls-1" d="m747.6,499.7c19,0,34.1,5.9,45.1,17.7s16.5,27.4,16.5,46.9v98.3h-15.8v-97c0-15.7-4.2-28.2-12.7-37.5-8.5-9.3-20.2-13.9-35.2-13.9s-28.6,4.9-38.6,14.8c-10,9.9-15,22.5-15,38v95.7h-16.1v-97c0-15.7-4.2-28.2-12.7-37.5-8.5-9.3-20.2-13.9-35.2-13.9s-28.6,4.9-38.5,14.8c-9.9,9.8-14.9,22.5-14.9,38v95.7h-16v-134.2c0-10-3-15.1-8.9-15.1s-4.6,1-7,3l-1.2-.3-3.6-10.6.6-1.6c3.7-2.8,8.3-4.2,13.7-4.2s12,2.2,15.8,6.5c3.8,4.3,5.7,10.1,5.7,17.4v5.4c5.7-9.1,13.4-16.3,23.2-21.5,9.8-5.2,20.9-7.8,33.3-7.8s25.6,3.2,35.6,9.7c9.9,6.5,17.1,15.3,21.4,26.6,5.3-11.2,13.2-20,23.8-26.6,10.6-6.5,22.9-9.8,36.9-9.8Z"/>
  </g>
  <g>
    <circle class="cls-1" cx="564.1" cy="745.7" r="34.4"/>
    <circle class="cls-1" cx="673" cy="747.5" r="34.4"/>
    <circle class="cls-1" cx="774.8" cy="745.7" r="34.4"/>
  </g>
</svg>